<svg xmlns="http://www.w3.org/2000/svg" xmlns:xlink="http://www.w3.org/1999/xlink" width="586px" height="250px" viewBox="400 0 586 250"><g class="layer-base" data-element-id="__implicitroot"><g class="djs-group"><g class="djs-element djs-shape" data-element-id="BPMNShape_3932F5CF27FC9481" style="display: block;" transform="matrix(1 0 0 1 430 0)"><g class="djs-visual"><rect height="125" rx="0" ry="0" width="556" x="0" y="0" style="fill: none; stroke: rgb(86, 86, 86); stroke-width: 1;"></rect><text transform="rotate(270)" class=" djs-label" style="fill: rgb(86, 86, 86); stroke: none; stroke-width: 0; user-select: none;"><tspan x="-62.5" y="19.6" style="stroke: none; stroke-width: 0; text-anchor: middle;">Ersteller</tspan></text></g></g></g><g class="djs-group"><g class="djs-element djs-shape" data-element-id="BPMNShape_05FFC0F247F4A6C8" style="display: block;" transform="matrix(1 0 0 1 430 125)"><g class="djs-visual"><rect height="125" rx="0" ry="0" width="556" x="0" y="0" style="fill: none; stroke: rgb(86, 86, 86); stroke-width: 1;"></rect><text transform="rotate(270)" class=" djs-label" style="fill: rgb(86, 86, 86); stroke: none; stroke-width: 0; user-select: none;"><tspan x="-62.5" y="19.6" style="stroke: none; stroke-width: 0; text-anchor: middle;">Bearbeiter</tspan></text></g></g></g><g class="djs-group"><g class="djs-element djs-shape" data-element-id="BPMNShape_0A406FE49FE5B0F4" style="display: block;" transform="matrix(1 0 0 1 400 0)"><g class="djs-visual"><rect height="250" rx="0" ry="0" width="586" x="0" y="0" style="fill: none; stroke: rgb(86, 86, 86); stroke-width: 1;"></rect><text transform="rotate(270)" class=" djs-label" style="fill: rgb(86, 86, 86); stroke: none; stroke-width: 0; user-select: none;"><tspan x="-125" y="19.6" style="stroke: none; stroke-width: 0; text-anchor: middle;">Beispiel Prozess</tspan></text></g></g></g><g class="djs-group"><g class="djs-element djs-shape" data-element-id="BPMNShape_818418D85FE8A0D0" style="display: block;" transform="matrix(1 0 0 1 500 45)"><g class="djs-visual"><circle cx="18" cy="18" r="18" style="fill: white; stroke: rgb(86, 86, 86); stroke-width: 1.8;"></circle></g></g></g><g class="djs-group"><g class="djs-element djs-shape" data-element-id="BPMNShape_3D8CACFCE98B0213" style="display: block;" transform="matrix(1 0 0 1 598 23)"><g class="djs-visual"><rect height="80" rx="8" ry="8" width="100" x="0" y="0" style="fill: white; stroke: rgb(86, 86, 86); stroke-width: 1.6;"></rect><text class=" djs-label" style="fill: rgb(86, 86, 86); stroke: none; stroke-width: 0; user-select: none;"><tspan x="50" y="40" style="alignment-baseline: central; stroke: none; stroke-width: 0; text-anchor: middle;">Aufgabe 1</tspan></text><g><svg xmlns="http://www.w3.org/2000/svg" xmlns:xlink="http://www.w3.org/1999/xlink" aria-hidden="true" focusable="false" width="32px" height="32px" style="-ms-transform: rotate(360deg); -webkit-transform: rotate(360deg); transform: rotate(360deg);" preserveAspectRatio="xMidYMid meet" viewBox="200 200 2000 2000"><g stroke="#565656"><path d="M722.297 656.594C722.317 737.279 768 840 821.517 880.15c14.362 10.775 1.471 7.63 18.999 18.584C704.714 939.974 528 1010 448 1160v420h1087.5v-420c-80-150-256.714-220.026-392.515-261.266 96-60 118.195-143.433 118.218-242.14C1260.89 520 1151.5 400 991.75 400 832 400 722.61 520 722.297 656.594z" fill="none" stroke-width="70" stroke-linecap="round" stroke-miterlimit="2.3"></path><path d="M752 550c38.64 3.52 39.962-25.563 145.847-19.322 158.153 9.322 107.028 57.135 214.93 60.28 84.098-3.145 80.524-29.91 119.223-40.958-64-70-127.297-114.535-240-150-96 30-176 80-240 150z" fill-rule="evenodd" fill="#565656"></path><path d="M684 1560v-280" fill="none" stroke-width="70"></path><path d="M1298 1560v-280" fill="none" stroke-width="70"></path><path d="M768 920s-37.712 122.288 0 160c105.595 105.595 342.405 105.595 448 0 37.712-37.712 0-160 0-160" fill="none" stroke-width="70"></path></g></svg></g></g></g></g><g class="djs-group"><g class="djs-element djs-shape" data-element-id="BPMNShape_C768FF03065DF6FC" style="display: block;" transform="matrix(1 0 0 1 760 148)"><g class="djs-visual"><rect height="80" rx="8" ry="8" width="100" x="0" y="0" style="fill: white; stroke: rgb(86, 86, 86); stroke-width: 1.6;"></rect><text class=" djs-label" style="fill: rgb(86, 86, 86); stroke: none; stroke-width: 0; user-select: none;"><tspan x="50" y="40" style="alignment-baseline: central; stroke: none; stroke-width: 0; text-anchor: middle;">Aufgabe 2</tspan></text><g><svg xmlns="http://www.w3.org/2000/svg" xmlns:xlink="http://www.w3.org/1999/xlink" aria-hidden="true" focusable="false" width="32px" height="32px" style="-ms-transform: rotate(360deg); -webkit-transform: rotate(360deg); transform: rotate(360deg);" preserveAspectRatio="xMidYMid meet" viewBox="200 200 2000 2000"><g stroke="#565656"><path d="M722.297 656.594C722.317 737.279 768 840 821.517 880.15c14.362 10.775 1.471 7.63 18.999 18.584C704.714 939.974 528 1010 448 1160v420h1087.5v-420c-80-150-256.714-220.026-392.515-261.266 96-60 118.195-143.433 118.218-242.14C1260.89 520 1151.5 400 991.75 400 832 400 722.61 520 722.297 656.594z" fill="none" stroke-width="70" stroke-linecap="round" stroke-miterlimit="2.3"></path><path d="M752 550c38.64 3.52 39.962-25.563 145.847-19.322 158.153 9.322 107.028 57.135 214.93 60.28 84.098-3.145 80.524-29.91 119.223-40.958-64-70-127.297-114.535-240-150-96 30-176 80-240 150z" fill-rule="evenodd" fill="#565656"></path><path d="M684 1560v-280" fill="none" stroke-width="70"></path><path d="M1298 1560v-280" fill="none" stroke-width="70"></path><path d="M768 920s-37.712 122.288 0 160c105.595 105.595 342.405 105.595 448 0 37.712-37.712 0-160 0-160" fill="none" stroke-width="70"></path></g></svg></g></g></g></g><g class="djs-group"><g class="djs-element djs-shape" data-element-id="BPMNShape_0EFC3339D2E84918" style="display: block;" transform="matrix(1 0 0 1 922 170)"><g class="djs-visual"><circle cx="18" cy="18" r="18" style="fill: white; stroke: rgb(86, 86, 86); stroke-width: 5;"></circle></g></g></g><g class="djs-group"><g class="djs-element djs-connection" data-element-id="BPMNEdge_EA44F018C670BE01" style="display: block;"><g class="djs-visual"><defs><marker id="drawArrow-end" markerHeight="9" markerUnits="strokeWidth" markerWidth="9" orient="auto" refX="10" refY="3"><path d="M0,1 L0,5 L9,3 z" style="fill: rgb(86, 86, 86);"></path></marker></defs><polyline points="536,63 567,63 567,63 598,63 " style="fill: none; stroke: rgb(86, 86, 86); stroke-width: 1.6; marker-end: url(&quot;#drawArrow-end&quot;);"></polyline></g></g></g><g class="djs-group"><g class="djs-element djs-connection" data-element-id="BPMNEdge_F427DE2C73842A4A" style="display: block;"><g class="djs-visual"><defs><marker id="drawArrow-end" markerHeight="9" markerUnits="strokeWidth" markerWidth="9" orient="auto" refX="10" refY="3"><path d="M0,1 L0,5 L9,3 z" style="fill: rgb(86, 86, 86);"></path></marker></defs><polyline points="698,63 729,63 729,188 760,188 " style="fill: none; stroke: rgb(86, 86, 86); stroke-width: 1.6; marker-end: url(&quot;#drawArrow-end&quot;);"></polyline></g></g></g><g class="djs-group"><g class="djs-element djs-connection" data-element-id="BPMNEdge_DCF8C330D57C80A2" style="display: block;"><g class="djs-visual"><defs><marker id="drawArrow-end" markerHeight="9" markerUnits="strokeWidth" markerWidth="9" orient="auto" refX="10" refY="3"><path d="M0,1 L0,5 L9,3 z" style="fill: rgb(86, 86, 86);"></path></marker></defs><polyline points="860,188 891,188 891,188 922,188 " style="fill: none; stroke: rgb(86, 86, 86); stroke-width: 1.6; marker-end: url(&quot;#drawArrow-end&quot;);"></polyline></g></g></g></g><g class="djs-element djs-shape" data-element-id="BPMNShape_3932F5CF27FC9481" style="display: block;" transform="matrix(1 0 0 1 430 0)"><g class="djs-visual"><rect height="125" rx="0" ry="0" width="556" x="0" y="0" style="fill: none; stroke: rgb(86, 86, 86); stroke-width: 1;"></rect><text transform="rotate(270)" class=" djs-label" style="fill: rgb(86, 86, 86); stroke: none; stroke-width: 0; user-select: none;"><tspan x="-62.5" y="19.6" style="stroke: none; stroke-width: 0; text-anchor: middle;">Ersteller</tspan></text></g></g><g class="djs-element djs-shape" data-element-id="BPMNShape_05FFC0F247F4A6C8" style="display: block;" transform="matrix(1 0 0 1 430 125)"><g class="djs-visual"><rect height="125" rx="0" ry="0" width="556" x="0" y="0" style="fill: none; stroke: rgb(86, 86, 86); stroke-width: 1;"></rect><text transform="rotate(270)" class=" djs-label" style="fill: rgb(86, 86, 86); stroke: none; stroke-width: 0; user-select: none;"><tspan x="-62.5" y="19.6" style="stroke: none; stroke-width: 0; text-anchor: middle;">Bearbeiter</tspan></text></g></g><g class="djs-element djs-shape" data-element-id="BPMNShape_0A406FE49FE5B0F4" style="display: block;" transform="matrix(1 0 0 1 400 0)"><g class="djs-visual"><rect height="250" rx="0" ry="0" width="586" x="0" y="0" style="fill: none; stroke: rgb(86, 86, 86); stroke-width: 1;"></rect><text transform="rotate(270)" class=" djs-label" style="fill: rgb(86, 86, 86); stroke: none; stroke-width: 0; user-select: none;"><tspan x="-125" y="19.6" style="stroke: none; stroke-width: 0; text-anchor: middle;">Beispiel Prozess</tspan></text></g></g><g class="djs-element djs-shape" data-element-id="BPMNShape_818418D85FE8A0D0" style="display: block;" transform="matrix(1 0 0 1 500 45)"><g class="djs-visual"><circle cx="18" cy="18" r="18" style="fill: white; stroke: rgb(86, 86, 86); stroke-width: 1.8;"></circle></g></g><g class="djs-element djs-shape" data-element-id="BPMNShape_3D8CACFCE98B0213" style="display: block;" transform="matrix(1 0 0 1 598 23)"><g class="djs-visual"><rect height="80" rx="8" ry="8" width="100" x="0" y="0" style="fill: white; stroke: rgb(86, 86, 86); stroke-width: 1.6;"></rect><text class=" djs-label" style="fill: rgb(86, 86, 86); stroke: none; stroke-width: 0; user-select: none;"><tspan x="50" y="40" style="alignment-baseline: central; stroke: none; stroke-width: 0; text-anchor: middle;">Aufgabe 1</tspan></text><g><svg xmlns="http://www.w3.org/2000/svg" xmlns:xlink="http://www.w3.org/1999/xlink" aria-hidden="true" focusable="false" width="32px" height="32px" style="-ms-transform: rotate(360deg); -webkit-transform: rotate(360deg); transform: rotate(360deg);" preserveAspectRatio="xMidYMid meet" viewBox="200 200 2000 2000"><g stroke="#565656"><path d="M722.297 656.594C722.317 737.279 768 840 821.517 880.15c14.362 10.775 1.471 7.63 18.999 18.584C704.714 939.974 528 1010 448 1160v420h1087.5v-420c-80-150-256.714-220.026-392.515-261.266 96-60 118.195-143.433 118.218-242.14C1260.89 520 1151.5 400 991.75 400 832 400 722.61 520 722.297 656.594z" fill="none" stroke-width="70" stroke-linecap="round" stroke-miterlimit="2.3"></path><path d="M752 550c38.64 3.52 39.962-25.563 145.847-19.322 158.153 9.322 107.028 57.135 214.93 60.28 84.098-3.145 80.524-29.91 119.223-40.958-64-70-127.297-114.535-240-150-96 30-176 80-240 150z" fill-rule="evenodd" fill="#565656"></path><path d="M684 1560v-280" fill="none" stroke-width="70"></path><path d="M1298 1560v-280" fill="none" stroke-width="70"></path><path d="M768 920s-37.712 122.288 0 160c105.595 105.595 342.405 105.595 448 0 37.712-37.712 0-160 0-160" fill="none" stroke-width="70"></path></g></svg></g></g></g><g class="djs-element djs-shape" data-element-id="BPMNShape_C768FF03065DF6FC" style="display: block;" transform="matrix(1 0 0 1 760 148)"><g class="djs-visual"><rect height="80" rx="8" ry="8" width="100" x="0" y="0" style="fill: white; stroke: rgb(86, 86, 86); stroke-width: 1.6;"></rect><text class=" djs-label" style="fill: rgb(86, 86, 86); stroke: none; stroke-width: 0; user-select: none;"><tspan x="50" y="40" style="alignment-baseline: central; stroke: none; stroke-width: 0; text-anchor: middle;">Aufgabe 2</tspan></text><g><svg xmlns="http://www.w3.org/2000/svg" xmlns:xlink="http://www.w3.org/1999/xlink" aria-hidden="true" focusable="false" width="32px" height="32px" style="-ms-transform: rotate(360deg); -webkit-transform: rotate(360deg); transform: rotate(360deg);" preserveAspectRatio="xMidYMid meet" viewBox="200 200 2000 2000"><g stroke="#565656"><path d="M722.297 656.594C722.317 737.279 768 840 821.517 880.15c14.362 10.775 1.471 7.63 18.999 18.584C704.714 939.974 528 1010 448 1160v420h1087.5v-420c-80-150-256.714-220.026-392.515-261.266 96-60 118.195-143.433 118.218-242.14C1260.89 520 1151.5 400 991.75 400 832 400 722.61 520 722.297 656.594z" fill="none" stroke-width="70" stroke-linecap="round" stroke-miterlimit="2.3"></path><path d="M752 550c38.64 3.52 39.962-25.563 145.847-19.322 158.153 9.322 107.028 57.135 214.93 60.28 84.098-3.145 80.524-29.91 119.223-40.958-64-70-127.297-114.535-240-150-96 30-176 80-240 150z" fill-rule="evenodd" fill="#565656"></path><path d="M684 1560v-280" fill="none" stroke-width="70"></path><path d="M1298 1560v-280" fill="none" stroke-width="70"></path><path d="M768 920s-37.712 122.288 0 160c105.595 105.595 342.405 105.595 448 0 37.712-37.712 0-160 0-160" fill="none" stroke-width="70"></path></g></svg></g></g></g><g class="djs-element djs-shape" data-element-id="BPMNShape_0EFC3339D2E84918" style="display: block;" transform="matrix(1 0 0 1 922 170)"><g class="djs-visual"><circle cx="18" cy="18" r="18" style="fill: white; stroke: rgb(86, 86, 86); stroke-width: 5;"></circle></g></g><g class="djs-element djs-connection" data-element-id="BPMNEdge_EA44F018C670BE01" style="display: block;"><g class="djs-visual"><defs><marker id="drawArrow-end" markerHeight="9" markerUnits="strokeWidth" markerWidth="9" orient="auto" refX="10" refY="3"><path d="M0,1 L0,5 L9,3 z" style="fill: rgb(86, 86, 86);"></path></marker></defs><polyline points="536,63 567,63 567,63 598,63 " style="fill: none; stroke: rgb(86, 86, 86); stroke-width: 1.6; marker-end: url(&quot;#drawArrow-end&quot;);"></polyline></g></g><g class="djs-element djs-connection" data-element-id="BPMNEdge_F427DE2C73842A4A" style="display: block;"><g class="djs-visual"><defs><marker id="drawArrow-end" markerHeight="9" markerUnits="strokeWidth" markerWidth="9" orient="auto" refX="10" refY="3"><path d="M0,1 L0,5 L9,3 z" style="fill: rgb(86, 86, 86);"></path></marker></defs><polyline points="698,63 729,63 729,188 760,188 " style="fill: none; stroke: rgb(86, 86, 86); stroke-width: 1.6; marker-end: url(&quot;#drawArrow-end&quot;);"></polyline></g></g><g class="djs-element djs-connection" data-element-id="BPMNEdge_DCF8C330D57C80A2" style="display: block;"><g class="djs-visual"><defs><marker id="drawArrow-end" markerHeight="9" markerUnits="strokeWidth" markerWidth="9" orient="auto" refX="10" refY="3"><path d="M0,1 L0,5 L9,3 z" style="fill: rgb(86, 86, 86);"></path></marker></defs><polyline points="860,188 891,188 891,188 922,188 " style="fill: none; stroke: rgb(86, 86, 86); stroke-width: 1.6; marker-end: url(&quot;#drawArrow-end&quot;);"></polyline></g></g></svg>